M48
; DRILL file {KiCad (7.0.0)} date Sat Mar  4 23:04:40 2023
; FORMAT={-:-/ absolute / inch / decimal}
; #@! TF.CreationDate,2023-03-04T23:04:40-05:00
; #@! TF.GenerationSoftware,Kicad,Pcbnew,(7.0.0)
; #@! TF.FileFunction,Plated,1,2,PTH
FMAT,2
INCH
; #@! TA.AperFunction,Plated,PTH,ViaDrill
T1C0.0118
; #@! TA.AperFunction,Plated,PTH,ComponentDrill
T2C0.0138
; #@! TA.AperFunction,Plated,PTH,ViaDrill
T3C0.0236
; #@! TA.AperFunction,Plated,PTH,ComponentDrill
T4C0.0236
; #@! TA.AperFunction,Plated,PTH,ComponentDrill
T5C0.0335
; #@! TA.AperFunction,Plated,PTH,ComponentDrill
T6C0.0374
; #@! TA.AperFunction,Plated,PTH,ComponentDrill
T7C0.0394
; #@! TA.AperFunction,Plated,PTH,ComponentDrill
T8C0.0433
; #@! TA.AperFunction,Plated,PTH,ComponentDrill
T9C0.0787
%
G90
G05
T1
X6.9291Y-3.5039
X6.937Y-3.2362
X6.937Y-3.3622
X7.0079Y-3.4252
X7.0236Y-4.0787
X7.0246Y-3.3335
X7.0787Y-4.3071
X7.0876Y-3.3379
X7.0945Y-3.9134
X7.1102Y-4.5354
X7.1171Y-3.3379
X7.1811Y-3.5197
X7.2047Y-3.3543
X7.2835Y-3.0866
X7.2835Y-3.9685
X7.315Y-3.5039
X7.3228Y-3.1575
X7.3622Y-3.685
X7.4409Y-3.9528
X7.4488Y-3.5039
X7.4646Y-4.1024
X7.4724Y-4.2677
X7.4724Y-4.3858
X7.5039Y-4.1417
X7.5117Y-3.736
X7.5118Y-3.9843
X7.5354Y-4.2756
X7.5354Y-4.3622
X7.5433Y-3.3701
X7.5591Y-3.748
X7.5591Y-4.4803
X7.6142Y-3.7795
X7.626Y-2.9872
X7.6268Y-3.0995
X7.6299Y-3.9843
X7.6299Y-4.126
X7.6614Y-3.7953
X7.6693Y-3.5906
X7.6693Y-3.9213
X7.6929Y-4.2677
X7.6929Y-4.3701
X7.7087Y-3.2441
X7.748Y-3.6614
X7.7874Y-4.4803
X7.7927Y-3.651
X7.8031Y-4.0787
X7.811Y-3.9685
X7.811Y-4.2677
X7.817Y-3.6593
X7.8268Y-3.189
X7.8346Y-3.685
X7.8346Y-3.7165
X7.8425Y-3.3858
X7.8898Y-3.7795
X7.89Y-3.6893
X7.9055Y-3.9843
X7.9134Y-3.189
X7.9134Y-3.7087
X7.9291Y-4.3701
X7.937Y-4.0945
X7.937Y-4.126
X7.937Y-4.1732
X7.9528Y-3.9606
X7.9606Y-3.4567
X7.9843Y-3.5039
X7.9843Y-4.189
X8.0Y-3.8583
X8.0Y-4.2756
X8.0157Y-3.5118
X8.0235Y-3.8426
X8.0272Y-3.9764
X8.0273Y-4.0079
X8.0301Y-3.9495
X8.0394Y-3.8189
X8.0394Y-4.0714
X8.0394Y-4.1024
X8.0551Y-3.5354
X8.063Y-4.3228
X8.0709Y-3.4567
X8.0709Y-3.6063
X8.0709Y-3.8268
X8.0787Y-3.9291
X8.0866Y-3.5039
X8.0866Y-3.5591
X8.0866Y-4.5197
X8.1024Y-4.2126
X8.1102Y-4.2756
X8.1181Y-3.4252
X8.1181Y-3.4567
X8.1181Y-3.8583
X8.126Y-4.126
X8.1417Y-4.2441
X8.1732Y-4.1181
X8.1811Y-4.2441
X8.2205Y-3.2047
X8.2205Y-4.1181
X8.2205Y-4.2598
X8.2441Y-3.6368
X8.2598Y-4.1575
X8.2677Y-3.8976
X8.2756Y-3.4409
X8.2835Y-3.685
X8.2913Y-3.5906
X8.2992Y-3.3228
X8.3071Y-3.7795
X8.315Y-4.4094
X8.3228Y-3.3465
X8.3307Y-3.4646
X8.3307Y-3.5906
X8.3386Y-4.1575
X8.3465Y-3.5512
X8.3543Y-3.3622
X8.3622Y-3.748
X8.3622Y-4.5197
X8.3858Y-3.3858
X8.3976Y-3.5
X8.4016Y-4.3465
X8.4082Y-3.7087
X8.413Y-3.8976
X8.4173Y-3.0157
X8.4173Y-4.0551
X8.4252Y-3.3386
X8.4252Y-4.0866
X8.4331Y-3.8425
X8.4409Y-4.2598
X8.4567Y-3.7917
X8.4724Y-4.5512
X8.4882Y-3.0472
X8.4882Y-3.4961
X8.4882Y-3.6614
X8.4882Y-3.7638
X8.4942Y-3.3404
X8.4961Y-4.1496
X8.526Y-3.7638
X8.5512Y-3.7874
X8.5669Y-3.4961
X8.5669Y-3.7559
X8.5669Y-3.8898
X8.5669Y-3.9528
X8.5669Y-4.0157
X8.5669Y-4.378
X8.5968Y-3.7953
X8.5984Y-3.1102
X8.5984Y-3.4724
X8.5984Y-3.5669
X8.622Y-3.8898
X8.622Y-3.9528
X8.622Y-4.0157
X8.6299Y-3.6063
X8.6772Y-4.0787
X8.6772Y-4.2047
X8.7008Y-3.0
X8.7008Y-3.189
X8.7008Y-3.3386
X8.7008Y-3.4724
X8.7008Y-3.6299
X8.7008Y-3.811
X8.7244Y-4.0472
X8.7638Y-4.378
X8.7717Y-3.8031
X8.8031Y-3.8031
X8.8189Y-3.3386
X8.8268Y-3.8268
X8.8346Y-4.1969
X8.8425Y-4.0709
X8.8504Y-3.8031
X8.8583Y-3.4882
X8.874Y-3.8346
X8.874Y-4.378
X8.9252Y-3.8701
X8.9348Y-4.5354
X8.9606Y-4.0709
X8.9685Y-4.1969
X8.9685Y-4.315
X8.9685Y-4.378
X8.9724Y-3.8701
X9.0157Y-4.1024
X9.0276Y-3.8701
X9.0551Y-3.5433
X9.0551Y-4.0551
X9.0827Y-4.122
X9.0867Y-4.1577
X9.0945Y-4.0945
X9.4252Y-3.9764
X9.4252Y-4.0236
X9.4252Y-4.5197
X9.4252Y-4.5669
X9.4331Y-3.4567
X9.4331Y-3.5039
X9.4803Y-3.9764
X9.4803Y-4.0236
X9.4803Y-4.5197
X9.4803Y-4.5669
X9.4882Y-3.4567
X9.4882Y-3.5039
X9.5354Y-3.9764
X9.5354Y-4.0236
X9.5354Y-4.5197
X9.5354Y-4.5669
X9.5433Y-3.4567
X9.5433Y-3.5039
X9.5984Y-3.9764
X9.5984Y-4.0236
X9.5984Y-4.5197
X9.5984Y-4.5669
X9.6063Y-3.4567
X9.6063Y-3.5039
X9.6535Y-3.9764
X9.6535Y-4.0236
X9.6535Y-4.5197
X9.6535Y-4.5669
X9.6614Y-3.4567
X9.6614Y-3.5039
T2
X8.0758Y-3.9813
X8.0758Y-4.0315
X8.0758Y-4.0817
X8.126Y-3.9813
X8.126Y-4.0315
X8.126Y-4.0817
X8.1762Y-3.9813
X8.1762Y-4.0315
X8.1762Y-4.0817
T3
X7.126Y-4.3881
X7.2756Y-3.1496
X7.2756Y-3.4567
X7.3622Y-3.4488
X7.3701Y-3.7874
X7.3937Y-3.0945
X7.4409Y-3.2835
X8.0157Y-3.7795
X8.0181Y-3.622
X8.4094Y-3.1732
X8.622Y-3.2362
X9.748Y-3.5984
X9.748Y-3.6693
X9.748Y-3.7402
X9.748Y-3.8189
X9.748Y-3.8898
X9.748Y-3.9606
X9.748Y-4.0394
X9.748Y-4.1417
X9.748Y-4.2126
X9.748Y-4.2835
X9.748Y-4.3622
X9.748Y-4.4331
X9.748Y-4.5039
X9.748Y-4.5827
X9.7559Y-3.0551
X9.7559Y-3.126
X9.7559Y-3.1969
X9.7559Y-3.2756
X9.7559Y-3.3465
X9.7559Y-3.4173
X9.7559Y-3.4961
X9.8189Y-3.5984
X9.8189Y-3.6693
X9.8189Y-3.7402
X9.8189Y-3.8189
X9.8189Y-3.8898
X9.8189Y-3.9606
X9.8189Y-4.0394
X9.8189Y-4.1417
X9.8189Y-4.2126
X9.8189Y-4.2835
X9.8189Y-4.3622
X9.8189Y-4.4331
X9.8189Y-4.5039
X9.8189Y-4.5827
X9.8268Y-3.0551
X9.8268Y-3.126
X9.8268Y-3.1969
X9.8268Y-3.2756
X9.8268Y-3.3465
X9.8268Y-3.4173
X9.8268Y-3.4961
T4
X8.5748Y-3.3465
X8.5748Y-3.4055
T5
X6.9884Y-3.126
X7.1853Y-3.126
T6
X7.0079Y-3.6614
X7.0079Y-3.7598
X7.0079Y-3.8583
X7.0079Y-3.9567
X7.0079Y-4.1929
X7.0079Y-4.2913
X7.0079Y-4.3898
X7.0079Y-4.4882
T7
X7.2228Y-4.0472
X7.2228Y-4.1472
X7.2228Y-4.2472
X7.2228Y-4.3472
X7.2411Y-4.5276
X7.3228Y-4.0472
X7.3228Y-4.1472
X7.3228Y-4.2472
X7.3228Y-4.3472
X7.3409Y-3.0236
X7.3411Y-4.5276
X7.4409Y-3.0236
X7.5409Y-3.0236
X7.7102Y-3.0315
X7.8102Y-3.0315
X7.9102Y-3.0315
X8.0102Y-3.0315
X8.1102Y-3.0315
X8.2102Y-3.0315
X8.3102Y-3.0315
T8
X9.4407Y-4.2386
X9.4407Y-4.3386
X9.4407Y-4.4386
X9.4409Y-3.1677
X9.4409Y-3.2677
X9.4409Y-3.3677
X9.4497Y-3.6795
X9.4497Y-3.7795
X9.4497Y-3.8795
X9.6457Y-4.2386
X9.6457Y-4.3386
X9.6457Y-4.4386
X9.6459Y-3.1677
X9.6459Y-3.2677
X9.6459Y-3.3677
X9.6475Y-3.6795
X9.6475Y-3.7795
X9.6475Y-3.8795
T9
X8.2362Y-4.5197
X8.6299Y-4.5197
T4
G00X6.949Y-3.0335
M15
G01X6.949Y-3.0059
M16
G05
G00X7.2246Y-3.0059
M15
G01X7.2246Y-3.0335
M16
G05
T0
M30
