%TF.GenerationSoftware,KiCad,Pcbnew,(7.0.0)*%
%TF.CreationDate,2023-03-04T23:05:34-05:00*%
%TF.ProjectId,electrium-esc-v2,656c6563-7472-4697-956d-2d6573632d76,rev?*%
%TF.SameCoordinates,Original*%
%TF.FileFunction,Soldermask,Bot*%
%TF.FilePolarity,Negative*%
%FSLAX46Y46*%
G04 Gerber Fmt 4.6, Leading zero omitted, Abs format (unit mm)*
G04 Created by KiCad (PCBNEW (7.0.0)) date 2023-03-04 23:05:34*
%MOMM*%
%LPD*%
G01*
G04 APERTURE LIST*
G04 Aperture macros list*
%AMRoundRect*
0 Rectangle with rounded corners*
0 $1 Rounding radius*
0 $2 $3 $4 $5 $6 $7 $8 $9 X,Y pos of 4 corners*
0 Add a 4 corners polygon primitive as box body*
4,1,4,$2,$3,$4,$5,$6,$7,$8,$9,$2,$3,0*
0 Add four circle primitives for the rounded corners*
1,1,$1+$1,$2,$3*
1,1,$1+$1,$4,$5*
1,1,$1+$1,$6,$7*
1,1,$1+$1,$8,$9*
0 Add four rect primitives between the rounded corners*
20,1,$1+$1,$2,$3,$4,$5,0*
20,1,$1+$1,$4,$5,$6,$7,0*
20,1,$1+$1,$6,$7,$8,$9,0*
20,1,$1+$1,$8,$9,$2,$3,0*%
G04 Aperture macros list end*
%ADD10R,1.700000X1.700000*%
%ADD11C,1.700000*%
%ADD12RoundRect,0.249999X0.450001X1.425001X-0.450001X1.425001X-0.450001X-1.425001X0.450001X-1.425001X0*%
%ADD13C,2.500000*%
%ADD14R,4.000000X4.000000*%
%ADD15C,4.000000*%
%ADD16O,2.000000X1.905000*%
%ADD17R,2.000000X1.905000*%
%ADD18O,1.700000X1.700000*%
%ADD19O,1.950000X1.700000*%
%ADD20RoundRect,0.250000X0.725000X-0.600000X0.725000X0.600000X-0.725000X0.600000X-0.725000X-0.600000X0*%
%ADD21C,1.450000*%
%ADD22O,1.200000X1.900000*%
%ADD23R,1.200000X1.200000*%
%ADD24C,1.200000*%
G04 APERTURE END LIST*
D10*
%TO.C,U5*%
X183459999Y-102799999D03*
D11*
X186000000Y-102800000D03*
X183460000Y-105340000D03*
X186000000Y-105340000D03*
X183460000Y-107880000D03*
X186000000Y-107880000D03*
X183460000Y-110420000D03*
X186000000Y-110420000D03*
%TD*%
D12*
%TO.C,R12*%
X223700000Y-87600000D03*
X229800000Y-87600000D03*
%TD*%
D13*
%TO.C,TP1*%
X214800000Y-91000000D03*
%TD*%
D14*
%TO.C,C27*%
X219199999Y-114799999D03*
D15*
X209200000Y-114800000D03*
%TD*%
D12*
%TO.C,R11*%
X230050000Y-100800000D03*
X223950000Y-100800000D03*
%TD*%
%TO.C,R10*%
X229995000Y-115200000D03*
X223895000Y-115200000D03*
%TD*%
D16*
%TO.C,Q6*%
X245006999Y-85539999D03*
X245006999Y-82999999D03*
D17*
X245006999Y-80459999D03*
%TD*%
%TO.C,Q5*%
X245046999Y-93459999D03*
D16*
X245046999Y-95999999D03*
X245046999Y-98539999D03*
%TD*%
D17*
%TO.C,Q4*%
X244999999Y-107659999D03*
D16*
X244999999Y-110199999D03*
X244999999Y-112739999D03*
%TD*%
%TO.C,Q3*%
X239799999Y-80459999D03*
X239799999Y-82999999D03*
D17*
X239799999Y-85539999D03*
%TD*%
%TO.C,Q2*%
X240022999Y-98539999D03*
D16*
X240022999Y-95999999D03*
X240022999Y-93459999D03*
%TD*%
D17*
%TO.C,Q1*%
X239792999Y-112739999D03*
D16*
X239792999Y-110199999D03*
X239792999Y-107659999D03*
%TD*%
D10*
%TO.C,J6*%
X186459999Y-76799999D03*
D18*
X188999999Y-76799999D03*
X191539999Y-76799999D03*
%TD*%
D19*
%TO.C,J5*%
X177999999Y-106499999D03*
X177999999Y-108999999D03*
X177999999Y-111499999D03*
D20*
X178000000Y-114000000D03*
%TD*%
D18*
%TO.C,J4*%
X186464999Y-114999999D03*
D10*
X183924999Y-114999999D03*
%TD*%
%TO.C,J3*%
X211079999Y-76999999D03*
D18*
X208539999Y-76999999D03*
X205999999Y-76999999D03*
X203459999Y-76999999D03*
X200919999Y-76999999D03*
X198379999Y-76999999D03*
X195839999Y-76999999D03*
%TD*%
D21*
%TO.C,J2*%
X177505867Y-79400000D03*
D22*
X183505866Y-76699999D03*
D21*
X182505867Y-79400000D03*
D22*
X176505866Y-76699999D03*
%TD*%
D20*
%TO.C,J1*%
X178000000Y-100500000D03*
D19*
X177999999Y-97999999D03*
X177999999Y-95499999D03*
X177999999Y-92999999D03*
%TD*%
D23*
%TO.C,C22*%
X217799999Y-84999999D03*
D24*
X217800000Y-86500000D03*
%TD*%
G36*
X250338000Y-76216613D02*
G01*
X250383387Y-76262000D01*
X250400000Y-76324000D01*
X250400000Y-117076000D01*
X250383387Y-117138000D01*
X250338000Y-117183387D01*
X250276000Y-117200000D01*
X246924000Y-117200000D01*
X246862000Y-117183387D01*
X246816613Y-117138000D01*
X246800000Y-117076000D01*
X246800000Y-76324000D01*
X246816613Y-76262000D01*
X246862000Y-76216613D01*
X246924000Y-76200000D01*
X250276000Y-76200000D01*
X250338000Y-76216613D01*
G37*
M02*
