%TF.GenerationSoftware,KiCad,Pcbnew,(7.0.0)*%
%TF.CreationDate,2023-03-04T23:05:34-05:00*%
%TF.ProjectId,electrium-esc-v2,656c6563-7472-4697-956d-2d6573632d76,rev?*%
%TF.SameCoordinates,Original*%
%TF.FileFunction,Legend,Bot*%
%TF.FilePolarity,Positive*%
%FSLAX46Y46*%
G04 Gerber Fmt 4.6, Leading zero omitted, Abs format (unit mm)*
G04 Created by KiCad (PCBNEW (7.0.0)) date 2023-03-04 23:05:34*
%MOMM*%
%LPD*%
G01*
G04 APERTURE LIST*
%ADD10C,0.150000*%
%ADD11C,0.120000*%
G04 APERTURE END LIST*
D10*
%TO.C,R12*%
X233392857Y-87967380D02*
X233726190Y-87491190D01*
X233964285Y-87967380D02*
X233964285Y-86967380D01*
X233964285Y-86967380D02*
X233583333Y-86967380D01*
X233583333Y-86967380D02*
X233488095Y-87015000D01*
X233488095Y-87015000D02*
X233440476Y-87062619D01*
X233440476Y-87062619D02*
X233392857Y-87157857D01*
X233392857Y-87157857D02*
X233392857Y-87300714D01*
X233392857Y-87300714D02*
X233440476Y-87395952D01*
X233440476Y-87395952D02*
X233488095Y-87443571D01*
X233488095Y-87443571D02*
X233583333Y-87491190D01*
X233583333Y-87491190D02*
X233964285Y-87491190D01*
X232440476Y-87967380D02*
X233011904Y-87967380D01*
X232726190Y-87967380D02*
X232726190Y-86967380D01*
X232726190Y-86967380D02*
X232821428Y-87110238D01*
X232821428Y-87110238D02*
X232916666Y-87205476D01*
X232916666Y-87205476D02*
X233011904Y-87253095D01*
X232059523Y-87062619D02*
X232011904Y-87015000D01*
X232011904Y-87015000D02*
X231916666Y-86967380D01*
X231916666Y-86967380D02*
X231678571Y-86967380D01*
X231678571Y-86967380D02*
X231583333Y-87015000D01*
X231583333Y-87015000D02*
X231535714Y-87062619D01*
X231535714Y-87062619D02*
X231488095Y-87157857D01*
X231488095Y-87157857D02*
X231488095Y-87253095D01*
X231488095Y-87253095D02*
X231535714Y-87395952D01*
X231535714Y-87395952D02*
X232107142Y-87967380D01*
X232107142Y-87967380D02*
X231488095Y-87967380D01*
%TO.C,TP1*%
X216061904Y-88219380D02*
X215490476Y-88219380D01*
X215776190Y-89219380D02*
X215776190Y-88219380D01*
X215157142Y-89219380D02*
X215157142Y-88219380D01*
X215157142Y-88219380D02*
X214776190Y-88219380D01*
X214776190Y-88219380D02*
X214680952Y-88267000D01*
X214680952Y-88267000D02*
X214633333Y-88314619D01*
X214633333Y-88314619D02*
X214585714Y-88409857D01*
X214585714Y-88409857D02*
X214585714Y-88552714D01*
X214585714Y-88552714D02*
X214633333Y-88647952D01*
X214633333Y-88647952D02*
X214680952Y-88695571D01*
X214680952Y-88695571D02*
X214776190Y-88743190D01*
X214776190Y-88743190D02*
X215157142Y-88743190D01*
X213633333Y-89219380D02*
X214204761Y-89219380D01*
X213919047Y-89219380D02*
X213919047Y-88219380D01*
X213919047Y-88219380D02*
X214014285Y-88362238D01*
X214014285Y-88362238D02*
X214109523Y-88457476D01*
X214109523Y-88457476D02*
X214204761Y-88505095D01*
%TO.C,C27*%
X214842857Y-115472142D02*
X214890476Y-115519761D01*
X214890476Y-115519761D02*
X215033333Y-115567380D01*
X215033333Y-115567380D02*
X215128571Y-115567380D01*
X215128571Y-115567380D02*
X215271428Y-115519761D01*
X215271428Y-115519761D02*
X215366666Y-115424523D01*
X215366666Y-115424523D02*
X215414285Y-115329285D01*
X215414285Y-115329285D02*
X215461904Y-115138809D01*
X215461904Y-115138809D02*
X215461904Y-114995952D01*
X215461904Y-114995952D02*
X215414285Y-114805476D01*
X215414285Y-114805476D02*
X215366666Y-114710238D01*
X215366666Y-114710238D02*
X215271428Y-114615000D01*
X215271428Y-114615000D02*
X215128571Y-114567380D01*
X215128571Y-114567380D02*
X215033333Y-114567380D01*
X215033333Y-114567380D02*
X214890476Y-114615000D01*
X214890476Y-114615000D02*
X214842857Y-114662619D01*
X214461904Y-114662619D02*
X214414285Y-114615000D01*
X214414285Y-114615000D02*
X214319047Y-114567380D01*
X214319047Y-114567380D02*
X214080952Y-114567380D01*
X214080952Y-114567380D02*
X213985714Y-114615000D01*
X213985714Y-114615000D02*
X213938095Y-114662619D01*
X213938095Y-114662619D02*
X213890476Y-114757857D01*
X213890476Y-114757857D02*
X213890476Y-114853095D01*
X213890476Y-114853095D02*
X213938095Y-114995952D01*
X213938095Y-114995952D02*
X214509523Y-115567380D01*
X214509523Y-115567380D02*
X213890476Y-115567380D01*
X213557142Y-114567380D02*
X212890476Y-114567380D01*
X212890476Y-114567380D02*
X213319047Y-115567380D01*
%TO.C,R11*%
X233642857Y-101167380D02*
X233976190Y-100691190D01*
X234214285Y-101167380D02*
X234214285Y-100167380D01*
X234214285Y-100167380D02*
X233833333Y-100167380D01*
X233833333Y-100167380D02*
X233738095Y-100215000D01*
X233738095Y-100215000D02*
X233690476Y-100262619D01*
X233690476Y-100262619D02*
X233642857Y-100357857D01*
X233642857Y-100357857D02*
X233642857Y-100500714D01*
X233642857Y-100500714D02*
X233690476Y-100595952D01*
X233690476Y-100595952D02*
X233738095Y-100643571D01*
X233738095Y-100643571D02*
X233833333Y-100691190D01*
X233833333Y-100691190D02*
X234214285Y-100691190D01*
X232690476Y-101167380D02*
X233261904Y-101167380D01*
X232976190Y-101167380D02*
X232976190Y-100167380D01*
X232976190Y-100167380D02*
X233071428Y-100310238D01*
X233071428Y-100310238D02*
X233166666Y-100405476D01*
X233166666Y-100405476D02*
X233261904Y-100453095D01*
X231738095Y-101167380D02*
X232309523Y-101167380D01*
X232023809Y-101167380D02*
X232023809Y-100167380D01*
X232023809Y-100167380D02*
X232119047Y-100310238D01*
X232119047Y-100310238D02*
X232214285Y-100405476D01*
X232214285Y-100405476D02*
X232309523Y-100453095D01*
%TO.C,R10*%
X233587857Y-115567380D02*
X233921190Y-115091190D01*
X234159285Y-115567380D02*
X234159285Y-114567380D01*
X234159285Y-114567380D02*
X233778333Y-114567380D01*
X233778333Y-114567380D02*
X233683095Y-114615000D01*
X233683095Y-114615000D02*
X233635476Y-114662619D01*
X233635476Y-114662619D02*
X233587857Y-114757857D01*
X233587857Y-114757857D02*
X233587857Y-114900714D01*
X233587857Y-114900714D02*
X233635476Y-114995952D01*
X233635476Y-114995952D02*
X233683095Y-115043571D01*
X233683095Y-115043571D02*
X233778333Y-115091190D01*
X233778333Y-115091190D02*
X234159285Y-115091190D01*
X232635476Y-115567380D02*
X233206904Y-115567380D01*
X232921190Y-115567380D02*
X232921190Y-114567380D01*
X232921190Y-114567380D02*
X233016428Y-114710238D01*
X233016428Y-114710238D02*
X233111666Y-114805476D01*
X233111666Y-114805476D02*
X233206904Y-114853095D01*
X232016428Y-114567380D02*
X231921190Y-114567380D01*
X231921190Y-114567380D02*
X231825952Y-114615000D01*
X231825952Y-114615000D02*
X231778333Y-114662619D01*
X231778333Y-114662619D02*
X231730714Y-114757857D01*
X231730714Y-114757857D02*
X231683095Y-114948333D01*
X231683095Y-114948333D02*
X231683095Y-115186428D01*
X231683095Y-115186428D02*
X231730714Y-115376904D01*
X231730714Y-115376904D02*
X231778333Y-115472142D01*
X231778333Y-115472142D02*
X231825952Y-115519761D01*
X231825952Y-115519761D02*
X231921190Y-115567380D01*
X231921190Y-115567380D02*
X232016428Y-115567380D01*
X232016428Y-115567380D02*
X232111666Y-115519761D01*
X232111666Y-115519761D02*
X232159285Y-115472142D01*
X232159285Y-115472142D02*
X232206904Y-115376904D01*
X232206904Y-115376904D02*
X232254523Y-115186428D01*
X232254523Y-115186428D02*
X232254523Y-114948333D01*
X232254523Y-114948333D02*
X232206904Y-114757857D01*
X232206904Y-114757857D02*
X232159285Y-114662619D01*
X232159285Y-114662619D02*
X232111666Y-114615000D01*
X232111666Y-114615000D02*
X232016428Y-114567380D01*
D11*
%TO.C,R12*%
X228927064Y-89310000D02*
X224572936Y-89310000D01*
X228927064Y-85890000D02*
X224572936Y-85890000D01*
%TO.C,TP1*%
X216250000Y-91000000D02*
G75*
G03*
X216250000Y-91000000I-1450000J0D01*
G01*
%TO.C,C27*%
X219200000Y-110060000D02*
X219200000Y-112260000D01*
X220300000Y-111160000D02*
X218100000Y-111160000D01*
%TO.C,R11*%
X229177064Y-99090000D02*
X224822936Y-99090000D01*
X229177064Y-102510000D02*
X224822936Y-102510000D01*
%TO.C,R10*%
X229122064Y-113490000D02*
X224767936Y-113490000D01*
X229122064Y-116910000D02*
X224767936Y-116910000D01*
%TD*%
M02*
