%TF.GenerationSoftware,KiCad,Pcbnew,(7.0.0)*%
%TF.CreationDate,2023-03-04T23:05:34-05:00*%
%TF.ProjectId,electrium-esc-v2,656c6563-7472-4697-956d-2d6573632d76,rev?*%
%TF.SameCoordinates,Original*%
%TF.FileFunction,Paste,Top*%
%TF.FilePolarity,Positive*%
%FSLAX46Y46*%
G04 Gerber Fmt 4.6, Leading zero omitted, Abs format (unit mm)*
G04 Created by KiCad (PCBNEW (7.0.0)) date 2023-03-04 23:05:34*
%MOMM*%
%LPD*%
G01*
G04 APERTURE LIST*
G04 Aperture macros list*
%AMRoundRect*
0 Rectangle with rounded corners*
0 $1 Rounding radius*
0 $2 $3 $4 $5 $6 $7 $8 $9 X,Y pos of 4 corners*
0 Add a 4 corners polygon primitive as box body*
4,1,4,$2,$3,$4,$5,$6,$7,$8,$9,$2,$3,0*
0 Add four circle primitives for the rounded corners*
1,1,$1+$1,$2,$3*
1,1,$1+$1,$4,$5*
1,1,$1+$1,$6,$7*
1,1,$1+$1,$8,$9*
0 Add four rect primitives between the rounded corners*
20,1,$1+$1,$2,$3,$4,$5,0*
20,1,$1+$1,$4,$5,$6,$7,0*
20,1,$1+$1,$6,$7,$8,$9,0*
20,1,$1+$1,$8,$9,$2,$3,0*%
G04 Aperture macros list end*
%ADD10RoundRect,0.147500X-0.147500X-0.172500X0.147500X-0.172500X0.147500X0.172500X-0.147500X0.172500X0*%
%ADD11RoundRect,0.225000X0.250000X-0.225000X0.250000X0.225000X-0.250000X0.225000X-0.250000X-0.225000X0*%
%ADD12RoundRect,0.250000X-0.292217X-0.292217X0.292217X-0.292217X0.292217X0.292217X-0.292217X0.292217X0*%
%ADD13RoundRect,0.050000X-0.387500X-0.050000X0.387500X-0.050000X0.387500X0.050000X-0.387500X0.050000X0*%
%ADD14RoundRect,0.050000X-0.050000X-0.387500X0.050000X-0.387500X0.050000X0.387500X-0.050000X0.387500X0*%
%ADD15RoundRect,0.225000X0.225000X0.250000X-0.225000X0.250000X-0.225000X-0.250000X0.225000X-0.250000X0*%
%ADD16RoundRect,0.225000X-0.250000X0.225000X-0.250000X-0.225000X0.250000X-0.225000X0.250000X0.225000X0*%
%ADD17RoundRect,0.225000X-0.225000X-0.250000X0.225000X-0.250000X0.225000X0.250000X-0.225000X0.250000X0*%
%ADD18R,1.200000X1.200000*%
%ADD19R,1.600000X1.500000*%
%ADD20R,2.100000X5.600000*%
%ADD21RoundRect,0.150000X0.825000X0.150000X-0.825000X0.150000X-0.825000X-0.150000X0.825000X-0.150000X0*%
%ADD22R,0.300000X0.900000*%
%ADD23R,0.900000X0.300000*%
%ADD24R,4.250000X4.250000*%
%ADD25RoundRect,0.150000X-0.650000X-0.150000X0.650000X-0.150000X0.650000X0.150000X-0.650000X0.150000X0*%
%ADD26R,1.500000X2.000000*%
%ADD27R,3.800000X2.000000*%
%ADD28RoundRect,0.200000X-0.200000X-0.275000X0.200000X-0.275000X0.200000X0.275000X-0.200000X0.275000X0*%
%ADD29RoundRect,0.200000X0.200000X0.275000X-0.200000X0.275000X-0.200000X-0.275000X0.200000X-0.275000X0*%
%ADD30RoundRect,0.200000X0.275000X-0.200000X0.275000X0.200000X-0.275000X0.200000X-0.275000X-0.200000X0*%
%ADD31RoundRect,0.200000X-0.275000X0.200000X-0.275000X-0.200000X0.275000X-0.200000X0.275000X0.200000X0*%
%ADD32R,2.700000X0.800000*%
%ADD33R,1.500000X1.900000*%
%ADD34R,0.400000X1.350000*%
%ADD35R,1.525000X0.650000*%
%ADD36R,2.400000X3.100000*%
%ADD37RoundRect,0.250000X1.500000X0.550000X-1.500000X0.550000X-1.500000X-0.550000X1.500000X-0.550000X0*%
G04 APERTURE END LIST*
D10*
%TO.C,D1*%
X192915000Y-107000000D03*
X193885000Y-107000000D03*
%TD*%
%TO.C,D2*%
X192915000Y-105800000D03*
X193885000Y-105800000D03*
%TD*%
D11*
%TO.C,C32*%
X204600000Y-82975000D03*
X204600000Y-81425000D03*
%TD*%
D12*
%TO.C,U3*%
X205762500Y-101762500D03*
X205762500Y-103037500D03*
X207037500Y-101762500D03*
X207037500Y-103037500D03*
D13*
X202962500Y-99800000D03*
X202962500Y-100200000D03*
X202962500Y-100600000D03*
X202962500Y-101000000D03*
X202962500Y-101400000D03*
X202962500Y-101800000D03*
X202962500Y-102200000D03*
X202962500Y-102600000D03*
X202962500Y-103000000D03*
X202962500Y-103400000D03*
X202962500Y-103800000D03*
X202962500Y-104200000D03*
X202962500Y-104600000D03*
X202962500Y-105000000D03*
D14*
X203800000Y-105837500D03*
X204200000Y-105837500D03*
X204600000Y-105837500D03*
X205000000Y-105837500D03*
X205400000Y-105837500D03*
X205800000Y-105837500D03*
X206200000Y-105837500D03*
X206600000Y-105837500D03*
X207000000Y-105837500D03*
X207400000Y-105837500D03*
X207800000Y-105837500D03*
X208200000Y-105837500D03*
X208600000Y-105837500D03*
X209000000Y-105837500D03*
D13*
X209837500Y-105000000D03*
X209837500Y-104600000D03*
X209837500Y-104200000D03*
X209837500Y-103800000D03*
X209837500Y-103400000D03*
X209837500Y-103000000D03*
X209837500Y-102600000D03*
X209837500Y-102200000D03*
X209837500Y-101800000D03*
X209837500Y-101400000D03*
X209837500Y-101000000D03*
X209837500Y-100600000D03*
X209837500Y-100200000D03*
X209837500Y-99800000D03*
D14*
X209000000Y-98962500D03*
X208600000Y-98962500D03*
X208200000Y-98962500D03*
X207800000Y-98962500D03*
X207400000Y-98962500D03*
X207000000Y-98962500D03*
X206600000Y-98962500D03*
X206200000Y-98962500D03*
X205800000Y-98962500D03*
X205400000Y-98962500D03*
X205000000Y-98962500D03*
X204600000Y-98962500D03*
X204200000Y-98962500D03*
X203800000Y-98962500D03*
%TD*%
D15*
%TO.C,C13*%
X207575000Y-95000000D03*
X206025000Y-95000000D03*
%TD*%
%TO.C,C35*%
X179200000Y-89000000D03*
X177650000Y-89000000D03*
%TD*%
D11*
%TO.C,C34*%
X189300000Y-81575000D03*
X189300000Y-80025000D03*
%TD*%
%TO.C,C33*%
X206200000Y-82950000D03*
X206200000Y-81400000D03*
%TD*%
%TO.C,C31*%
X190900000Y-81575000D03*
X190900000Y-80025000D03*
%TD*%
D15*
%TO.C,C30*%
X195175000Y-83800000D03*
X193625000Y-83800000D03*
%TD*%
D16*
%TO.C,C23*%
X207400000Y-109425000D03*
X207400000Y-110975000D03*
%TD*%
D17*
%TO.C,C21*%
X218825000Y-108200000D03*
X220375000Y-108200000D03*
%TD*%
D11*
%TO.C,C20*%
X217200000Y-107975000D03*
X217200000Y-106425000D03*
%TD*%
D16*
%TO.C,C19*%
X215600000Y-106425000D03*
X215600000Y-107975000D03*
%TD*%
D11*
%TO.C,C18*%
X214000000Y-93175000D03*
X214000000Y-91625000D03*
%TD*%
%TO.C,C17*%
X193200000Y-88950000D03*
X193200000Y-87400000D03*
%TD*%
%TO.C,C16*%
X193000000Y-99575000D03*
X193000000Y-98025000D03*
%TD*%
%TO.C,C15*%
X208400000Y-85750000D03*
X208400000Y-84200000D03*
%TD*%
D17*
%TO.C,C14*%
X209250000Y-97200000D03*
X210800000Y-97200000D03*
%TD*%
D11*
%TO.C,C12*%
X193200000Y-92175000D03*
X193200000Y-90625000D03*
%TD*%
D17*
%TO.C,C11*%
X184625000Y-81800000D03*
X186175000Y-81800000D03*
%TD*%
D11*
%TO.C,C10*%
X188400000Y-110000000D03*
X188400000Y-108450000D03*
%TD*%
D16*
%TO.C,C9*%
X214000000Y-104850000D03*
X214000000Y-106400000D03*
%TD*%
D15*
%TO.C,C8*%
X202575000Y-96800000D03*
X201025000Y-96800000D03*
%TD*%
D16*
%TO.C,C7*%
X210800000Y-108225000D03*
X210800000Y-109775000D03*
%TD*%
D11*
%TO.C,C6*%
X200800000Y-99975000D03*
X200800000Y-98425000D03*
%TD*%
D15*
%TO.C,C5*%
X202600000Y-95200000D03*
X201050000Y-95200000D03*
%TD*%
%TO.C,C4*%
X207775000Y-93400000D03*
X206225000Y-93400000D03*
%TD*%
D16*
%TO.C,C3*%
X200400000Y-103825000D03*
X200400000Y-105375000D03*
%TD*%
%TO.C,C2*%
X209000000Y-109425000D03*
X209000000Y-110975000D03*
%TD*%
D17*
%TO.C,C1*%
X209200000Y-95000000D03*
X210750000Y-95000000D03*
%TD*%
D18*
%TO.C,VR1*%
X192999999Y-111999999D03*
D19*
X191999999Y-115249999D03*
D18*
X190999999Y-111999999D03*
%TD*%
D20*
%TO.C,Y1*%
X196799999Y-89499999D03*
X196799999Y-98499999D03*
%TD*%
D18*
%TO.C,VR4*%
X215999999Y-80599999D03*
D19*
X216999999Y-77349999D03*
D18*
X217999999Y-80599999D03*
%TD*%
%TO.C,VR3*%
X198799999Y-111949999D03*
D19*
X197799999Y-115199999D03*
D18*
X196799999Y-111949999D03*
%TD*%
%TO.C,VR2*%
X204599999Y-111949999D03*
D19*
X203599999Y-115199999D03*
D18*
X202599999Y-111949999D03*
%TD*%
D21*
%TO.C,U6*%
X184125000Y-98705000D03*
X184125000Y-97435000D03*
X184125000Y-96165000D03*
X184125000Y-94895000D03*
X189075000Y-94895000D03*
X189075000Y-96165000D03*
X189075000Y-97435000D03*
X189075000Y-98705000D03*
%TD*%
D22*
%TO.C,U4*%
X215349999Y-103349999D03*
X215849999Y-103349999D03*
X216349999Y-103349999D03*
X216849999Y-103349999D03*
X217349999Y-103349999D03*
X217849999Y-103349999D03*
X218349999Y-103349999D03*
X218849999Y-103349999D03*
X219349999Y-103349999D03*
X219849999Y-103349999D03*
D23*
X220549999Y-102649999D03*
X220549999Y-102149999D03*
X220549999Y-101649999D03*
X220549999Y-101149999D03*
X220549999Y-100649999D03*
X220549999Y-100149999D03*
X220549999Y-99649999D03*
X220549999Y-99149999D03*
X220549999Y-98649999D03*
X220549999Y-98149999D03*
D22*
X219849999Y-97449999D03*
X219349999Y-97449999D03*
X218849999Y-97449999D03*
X218349999Y-97449999D03*
X217849999Y-97449999D03*
X217349999Y-97449999D03*
X216849999Y-97449999D03*
X216349999Y-97449999D03*
X215849999Y-97449999D03*
X215349999Y-97449999D03*
D23*
X214649999Y-98149999D03*
X214649999Y-98649999D03*
X214649999Y-99149999D03*
X214649999Y-99649999D03*
X214649999Y-100149999D03*
X214649999Y-100649999D03*
X214649999Y-101149999D03*
X214649999Y-101649999D03*
X214649999Y-102149999D03*
X214649999Y-102649999D03*
D24*
X217599999Y-100399999D03*
%TD*%
D25*
%TO.C,U2*%
X200800000Y-87730000D03*
X200800000Y-89000000D03*
X200800000Y-90270000D03*
X200800000Y-91540000D03*
X208000000Y-91540000D03*
X208000000Y-90270000D03*
X208000000Y-89000000D03*
X208000000Y-87730000D03*
%TD*%
D26*
%TO.C,U1*%
X189299999Y-85499999D03*
D27*
X186999999Y-91799999D03*
D26*
X186999999Y-85499999D03*
X184699999Y-85499999D03*
%TD*%
D28*
%TO.C,R15*%
X199975000Y-79500000D03*
X201625000Y-79500000D03*
%TD*%
%TO.C,R14*%
X198425000Y-79500000D03*
X196775000Y-79500000D03*
%TD*%
D29*
%TO.C,R13*%
X204825000Y-79500000D03*
X203175000Y-79500000D03*
%TD*%
%TO.C,R9*%
X217575000Y-90600000D03*
X219225000Y-90600000D03*
%TD*%
D30*
%TO.C,R8*%
X212400000Y-94025000D03*
X212400000Y-92375000D03*
%TD*%
D29*
%TO.C,R7*%
X196650000Y-102200000D03*
X195000000Y-102200000D03*
%TD*%
%TO.C,R6*%
X191600000Y-106800000D03*
X189950000Y-106800000D03*
%TD*%
%TO.C,R5*%
X206425000Y-85800000D03*
X204775000Y-85800000D03*
%TD*%
D31*
%TO.C,R4*%
X181200000Y-81575000D03*
X181200000Y-83225000D03*
%TD*%
%TO.C,R3*%
X179600000Y-81575000D03*
X179600000Y-83225000D03*
%TD*%
D28*
%TO.C,R2*%
X195375000Y-105600000D03*
X197025000Y-105600000D03*
%TD*%
%TO.C,R1*%
X195375000Y-107200000D03*
X197025000Y-107200000D03*
%TD*%
D32*
%TO.C,L1*%
X193599999Y-82199999D03*
X193599999Y-79999999D03*
%TD*%
D33*
%TO.C,J2*%
X179005866Y-76699999D03*
X181005866Y-76699999D03*
D34*
X178705866Y-79399999D03*
X179355866Y-79399999D03*
X180005866Y-79399999D03*
X180655866Y-79399999D03*
X181305866Y-79399999D03*
%TD*%
D35*
%TO.C,IC1*%
X202611999Y-85104999D03*
X202611999Y-83834999D03*
X202611999Y-82564999D03*
X202611999Y-81294999D03*
X197187999Y-81294999D03*
X197187999Y-82564999D03*
X197187999Y-83834999D03*
X197187999Y-85104999D03*
D36*
X199899999Y-83199999D03*
%TD*%
D37*
%TO.C,C26*%
X228645000Y-108200000D03*
X223245000Y-108200000D03*
%TD*%
%TO.C,C25*%
X228700000Y-93000000D03*
X223300000Y-93000000D03*
%TD*%
%TO.C,C24*%
X223252000Y-79000000D03*
X228652000Y-79000000D03*
%TD*%
M02*
